<svg width="50" height="35" viewBox="0 0 50 35" fill="none" xmlns="http://www.w3.org/2000/svg">
<path d="M0.343651 16.4361L0.344704 16.435L16.468 0.341246C16.9267 -0.115258 17.6687 -0.113559 18.1253 0.34523C18.5819 0.80396 18.5801 1.54593 18.1214 2.00249L4.01021 16.0937H48.8281C49.4753 16.0937 49.9999 16.6184 49.9999 17.2656C49.9999 17.9128 49.4753 18.4375 48.8281 18.4375H4.01027L18.1213 32.5287C18.5801 32.9853 18.5818 33.7273 18.1253 34.186C17.6686 34.6448 16.9266 34.6464 16.4679 34.19L0.344646 18.0962L0.34359 18.0951C-0.115376 17.637 -0.113907 16.8927 0.343651 16.4361Z" fill="white"/>
</svg>
