<svg width="50" height="35" viewBox="0 0 50 35" fill="none" xmlns="http://www.w3.org/2000/svg">
<path d="M49.6562 16.4361L49.6552 16.435L33.5319 0.341246C33.0732 -0.115258 32.3312 -0.113559 31.8746 0.34523C31.418 0.80396 31.4198 1.54593 31.8785 2.00249L45.9897 16.0937H1.17181C0.524587 16.0937 -6.10352e-05 16.6184 -6.10352e-05 17.2656C-6.10352e-05 17.9128 0.524587 18.4375 1.17181 18.4375H45.9896L31.8786 32.5287C31.4198 32.9853 31.4181 33.7273 31.8746 34.186C32.3312 34.6448 33.0733 34.6464 33.532 34.19L49.6552 18.0962L49.6563 18.0951C50.1153 17.637 50.1138 16.8927 49.6562 16.4361Z" fill="white"/>
</svg>
